<svg width="25" height="25" viewBox="0 0 25 25" fill="none" xmlns="http://www.w3.org/2000/svg">
<g clip-path="url(#clip0_4021_2)">
<path d="M12.5 23.5L10.76 21.9414C8.74 20.1231 7.07 18.5545 5.75 17.2357C4.43 15.9169 3.38 14.733 2.6 13.6839C1.82 12.6349 1.275 11.6708 0.965 10.7916C0.655 9.91235 0.5 9.01317 0.5 8.09401C0.5 6.21571 1.13 4.64714 2.39 3.38828C3.65 2.12943 5.22 1.5 7.1 1.5C8.14 1.5 9.13 1.7198 10.07 2.1594C11.01 2.599 11.82 3.21844 12.5 4.01771C13.18 3.21844 13.99 2.599 14.93 2.1594C15.87 1.7198 16.86 1.5 17.9 1.5C19.78 1.5 21.35 2.12943 22.61 3.38828C23.87 4.64714 24.5 6.21571 24.5 8.09401C24.5 9.01317 24.345 9.91235 24.035 10.7916C23.725 11.6708 23.18 12.6349 22.4 13.6839C21.62 14.733 20.57 15.9169 19.25 17.2357C17.93 18.5545 16.26 20.1231 14.24 21.9414L12.5 23.5ZM12.5 20.2629C14.42 18.5445 16 17.0708 17.24 15.842C18.48 14.6131 19.46 13.5441 20.18 12.6349C20.9 11.7257 21.4 10.9164 21.68 10.2071C21.96 9.49773 22.1 8.79337 22.1 8.09401C22.1 6.8951 21.7 5.896 20.9 5.09673C20.1 4.29746 19.1 3.89782 17.9 3.89782C16.96 3.89782 16.09 4.16258 15.29 4.6921C14.49 5.22162 13.94 5.896 13.64 6.71526H11.36C11.06 5.896 10.51 5.22162 9.71 4.6921C8.91 4.16258 8.04 3.89782 7.1 3.89782C5.9 3.89782 4.9 4.29746 4.1 5.09673C3.3 5.896 2.9 6.8951 2.9 8.09401C2.9 8.79337 3.04 9.49773 3.32 10.2071C3.6 10.9164 4.1 11.7257 4.82 12.6349C5.54 13.5441 6.52 14.6131 7.76 15.842C9 17.0708 10.58 18.5445 12.5 20.2629Z" fill="white"/>
</g>
<defs>
<clipPath id="clip0_4021_2">
<rect width="24" height="24" fill="white" transform="translate(0.5 0.5)"/>
</clipPath>
</defs>
</svg>
