<svg width="24" height="24" viewBox="0 0 24 24" fill="none" xmlns="http://www.w3.org/2000/svg">
<g clip-path="url(#clip0_419_6)">
<path d="M12 23L10.26 21.4414C8.24 19.6231 6.57 18.0545 5.25 16.7357C3.93 15.4169 2.88 14.233 2.1 13.1839C1.32 12.1349 0.775 11.1708 0.465 10.2916C0.155 9.41235 0 8.51317 0 7.59401C0 5.71571 0.63 4.14714 1.89 2.88828C3.15 1.62943 4.72 1 6.6 1C7.64 1 8.63 1.2198 9.57 1.6594C10.51 2.099 11.32 2.71844 12 3.51771C12.68 2.71844 13.49 2.099 14.43 1.6594C15.37 1.2198 16.36 1 17.4 1C19.28 1 20.85 1.62943 22.11 2.88828C23.37 4.14714 24 5.71571 24 7.59401C24 8.51317 23.845 9.41235 23.535 10.2916C23.225 11.1708 22.68 12.1349 21.9 13.1839C21.12 14.233 20.07 15.4169 18.75 16.7357C17.43 18.0545 15.76 19.6231 13.74 21.4414L12 23Z" fill="#FF0000"/>
</g>
<defs>
<clipPath id="clip0_419_6">
<rect width="24" height="24" fill="white"/>
</clipPath>
</defs>
</svg>
