<svg width="494" height="634" viewBox="0 0 494 634" fill="none" xmlns="http://www.w3.org/2000/svg">
<path d="M388.259 633.253C386.965 633.253 385.708 633.253 384.414 633.181C326.318 631.095 280.724 582.091 282.772 523.953C283.024 517.338 283.814 510.758 285.215 504.431C295.599 456.828 278.712 407.391 241.347 376.112C217.382 356.05 187.561 345.623 157.381 345.623C140.495 345.623 123.537 348.895 107.405 355.582C97.9916 359.465 87.9315 361.443 77.4763 361.443C69.572 361.443 61.7036 360.22 54.1227 357.811C34.4698 351.591 18.3738 338.037 8.81681 319.593C-0.740196 301.184 -2.60853 280.187 3.60712 260.521C13.9905 227.623 42.9848 206.374 77.4403 206.374C85.3446 206.374 93.213 207.597 100.794 210.006C102.375 210.509 103.956 211.048 105.501 211.659C120.698 217.484 136.579 220.396 152.459 220.396C177.106 220.396 201.574 213.421 222.879 199.831C257.91 177.468 280.185 139.752 282.988 98.2615C286.724 42.2456 331.959 0 388.151 0C389.408 0 390.702 -6.6969e-08 391.995 0.0719073C420.055 1.07861 446.104 13.0152 465.325 33.6886C484.583 54.362 494.607 81.2194 493.601 109.299C492.236 147.985 470.212 182.681 436.187 199.831C392.139 222.05 364.33 267.172 364.258 316.536C364.186 365.901 391.887 411.095 435.864 433.422C446.822 438.995 456.739 446.509 465.397 455.785C484.871 476.71 494.643 502.885 493.601 531.468C491.553 588.562 445.313 633.253 388.259 633.253Z" fill="#C714E4"/>
<path d="M388.259 633.253C386.965 633.253 385.708 633.253 384.414 633.181C326.318 631.095 280.724 582.091 282.772 523.953C283.024 517.338 283.814 510.758 285.215 504.431C295.599 456.828 278.712 407.391 241.347 376.112C217.382 356.05 187.561 345.623 157.381 345.623C140.495 345.623 123.537 348.895 107.405 355.582C97.9916 359.465 87.9315 361.443 77.4763 361.443C69.572 361.443 61.7036 360.22 54.1227 357.811C34.4698 351.591 18.3738 338.037 8.81681 319.593C-0.740196 301.184 -2.60853 280.187 3.60712 260.521C13.9905 227.623 42.9848 206.374 77.4403 206.374C85.3446 206.374 93.213 207.597 100.794 210.006C102.375 210.509 103.956 211.048 105.501 211.659C120.698 217.484 136.579 220.396 152.459 220.396C177.106 220.396 201.574 213.421 222.879 199.831C257.91 177.468 280.185 139.752 282.988 98.2615C286.724 42.2456 331.959 0 388.151 0C389.408 0 390.702 -6.6969e-08 391.995 0.0719073C420.055 1.07861 446.104 13.0152 465.325 33.6886C484.583 54.362 494.607 81.2194 493.601 109.299C492.236 147.985 470.212 182.681 436.187 199.831C392.139 222.05 364.33 267.172 364.258 316.536C364.186 365.901 391.887 411.095 435.864 433.422C446.822 438.995 456.739 446.509 465.397 455.785C484.871 476.71 494.643 502.885 493.601 531.468C491.553 588.562 445.313 633.253 388.259 633.253Z" fill="#C714E4"/>
</svg>
