<svg width="23" height="23" viewBox="0 0 23 23" fill="none" xmlns="http://www.w3.org/2000/svg">
<path d="M12.3155 7.60579C12.9591 6.83712 13.5781 6.09883 14.1965 5.35996C15.4585 3.85071 16.7194 2.34031 17.9864 0.835642C18.056 0.753101 18.1772 0.670559 18.2753 0.669412C19.3438 0.658522 20.4129 0.66368 21.4814 0.665973C21.5137 0.665973 21.5466 0.678584 21.6245 0.695207C19.0549 3.76702 16.5095 6.81017 13.9454 9.87568C16.9579 14.0412 19.965 18.1998 23 22.3968C22.8723 22.406 22.7944 22.4163 22.7166 22.4163C20.5242 22.4163 18.3318 22.4134 16.1394 22.4209C15.9459 22.4215 15.8461 22.3355 15.7392 22.1887C13.9854 19.7818 12.2267 17.379 10.4685 14.9749C10.4362 14.9308 10.3994 14.8907 10.3441 14.8242C9.94932 15.2919 9.56282 15.747 9.18015 16.2045C7.49653 18.2164 5.8151 20.2301 4.12819 22.2386C4.05857 22.3211 3.93741 22.4048 3.83982 22.406C2.762 22.4174 1.68417 22.4123 0.606345 22.4111C0.581675 22.4111 0.557004 22.3974 0.487927 22.3762C3.22964 19.0997 5.956 15.8416 8.70045 12.5623C5.81401 8.61348 2.92975 4.6681 0 0.660814C0.182561 0.660814 0.296594 0.660814 0.410626 0.660814C2.61178 0.661961 4.81348 0.6654 7.01464 0.659668C7.20761 0.659668 7.32877 0.719281 7.44664 0.882645C8.99979 3.04134 10.5606 5.19431 12.1192 7.34842C12.1735 7.42351 12.2316 7.49573 12.3155 7.60579ZM18.8433 20.2232C18.7781 20.1217 18.7501 20.073 18.7172 20.0277C16.4042 16.8315 14.0901 13.6359 11.7777 10.4391C9.98825 7.96519 8.19991 5.49123 6.41706 3.01211C6.27891 2.82008 6.14514 2.72207 5.90172 2.73697C5.4741 2.76334 5.04374 2.74385 4.61447 2.74327C4.4659 2.74327 4.31788 2.74327 4.11668 2.74327C4.22029 2.8883 4.27895 2.97256 4.33926 3.0551C6.86168 6.50466 9.38355 9.95479 11.9065 13.4038C13.5254 15.6169 15.146 17.8295 16.7688 20.0398C16.8247 20.1154 16.9146 20.2135 16.9908 20.2152C17.5906 20.2295 18.1909 20.2232 18.8433 20.2232Z" fill="#DEDEDE"/>
</svg>
