<svg width="23" height="26" viewBox="0 0 23 26" fill="none" xmlns="http://www.w3.org/2000/svg">
<path d="M21.865 25.5072H16.0302C15.9901 25.3757 15.9158 25.2434 15.9158 25.1119C15.9092 22.1577 15.9143 19.2036 15.9056 16.2495C15.9048 15.9486 16.0054 15.8636 16.2664 15.8675C17.0318 15.8786 17.798 15.8628 18.5634 15.8754C18.8317 15.8801 18.9527 15.788 18.9848 15.4832C19.0919 14.4547 19.2115 13.4269 19.3544 12.4031C19.4061 12.0306 19.2902 11.951 18.9724 11.9573C18.0728 11.9754 17.1733 11.9534 16.2737 11.9699C15.9857 11.9746 15.8939 11.8746 15.9048 11.5635C15.926 10.9477 15.9041 10.3294 15.9128 9.71278C15.9325 8.31565 16.3736 7.84705 17.6558 7.84548C18.1545 7.84548 18.6531 7.83603 19.151 7.84784C19.4163 7.85414 19.5198 7.73916 19.5169 7.45249C19.5082 6.53341 19.5089 5.61433 19.5169 4.69525C19.5191 4.42906 19.4258 4.31644 19.1772 4.31014C18.2077 4.28572 17.236 4.18491 16.2693 4.22981C14.0722 4.33298 12.4713 6.02859 12.3066 8.40464C12.2359 9.42295 12.2432 10.4499 12.2556 11.4722C12.2607 11.8833 12.1345 11.9865 11.7759 11.9731C11.0593 11.9463 10.3413 11.9778 9.62466 11.9589C9.33963 11.951 9.23466 12.0463 9.2383 12.359C9.24997 13.3962 9.25142 14.4334 9.23757 15.4706C9.2332 15.7856 9.34474 15.8809 9.62175 15.877C10.3755 15.8644 11.1293 15.8809 11.8823 15.8699C12.1426 15.866 12.2497 15.9542 12.249 16.2526C12.2395 19.3383 12.2402 22.4232 12.2373 25.5088H1.07882C0.240495 25.1969 -0.0270414 24.5566 0.00211786 23.6194C0.0546045 21.9144 0.0181554 20.207 0.0181554 18.5003C0.0181554 13.0126 0.0181554 7.52573 0.0210714 2.03804C0.0218003 1.02445 0.490535 0.518838 1.42873 0.489699C1.63576 0.483398 1.84207 0.483398 2.0491 0.483398C4.5772 0.484974 7.10531 0.488911 9.63268 0.488911C13.6187 0.488911 17.6055 0.482611 21.5916 0.485761C22.5058 0.485761 23 1.04571 23 2.03489C23 7.62733 23 13.2198 23 18.8122C23 20.5188 23 22.2255 22.9964 23.9321C22.9942 24.8291 22.7434 25.1828 21.9517 25.4395C21.9197 25.4497 21.8941 25.4844 21.8657 25.5072H21.865Z" fill="#DEDEDE"/>
</svg>
