<svg width="34" height="35" viewBox="0 0 34 35" fill="none" xmlns="http://www.w3.org/2000/svg">
<path d="M31.3556 34.5L19.4556 22.6C18.5111 23.3556 17.425 23.9537 16.1972 24.3944C14.9694 24.8352 13.663 25.0556 12.2778 25.0556C8.8463 25.0556 5.94213 23.8671 3.56528 21.4903C1.18843 19.1134 0 16.2093 0 12.7778C0 9.3463 1.18843 6.44213 3.56528 4.06528C5.94213 1.68843 8.8463 0.5 12.2778 0.5C15.7093 0.5 18.6134 1.68843 20.9903 4.06528C23.3671 6.44213 24.5556 9.3463 24.5556 12.7778C24.5556 14.163 24.3352 15.4694 23.8944 16.6972C23.4537 17.925 22.8556 19.0111 22.1 19.9556L34 31.8556L31.3556 34.5ZM12.2778 21.2778C14.6389 21.2778 16.6458 20.4514 18.2986 18.7986C19.9514 17.1458 20.7778 15.1389 20.7778 12.7778C20.7778 10.4167 19.9514 8.40972 18.2986 6.75694C16.6458 5.10417 14.6389 4.27778 12.2778 4.27778C9.91667 4.27778 7.90972 5.10417 6.25694 6.75694C4.60417 8.40972 3.77778 10.4167 3.77778 12.7778C3.77778 15.1389 4.60417 17.1458 6.25694 18.7986C7.90972 20.4514 9.91667 21.2778 12.2778 21.2778Z" fill="#DEDEDE"/>
</svg>
