<svg width="26" height="26" viewBox="0 0 26 26" fill="none" xmlns="http://www.w3.org/2000/svg">
<g clip-path="url(#clip0_4021_4)">
<path d="M7.91467 24.9167C7.25406 24.9167 6.68853 24.6817 6.2181 24.2117C5.74766 23.7417 5.51245 23.1767 5.51245 22.5167C5.51245 21.8567 5.74766 21.2917 6.2181 20.8217C6.68853 20.3517 7.25406 20.1167 7.91467 20.1167C8.57528 20.1167 9.1408 20.3517 9.61123 20.8217C10.0817 21.2917 10.3169 21.8567 10.3169 22.5167C10.3169 23.1767 10.0817 23.7417 9.61123 24.2117C9.1408 24.6817 8.57528 24.9167 7.91467 24.9167ZM19.9258 24.9167C19.2652 24.9167 18.6996 24.6817 18.2292 24.2117C17.7588 23.7417 17.5235 23.1767 17.5235 22.5167C17.5235 21.8567 17.7588 21.2917 18.2292 20.8217C18.6996 20.3517 19.2652 20.1167 19.9258 20.1167C20.5864 20.1167 21.1519 20.3517 21.6223 20.8217C22.0928 21.2917 22.328 21.8567 22.328 22.5167C22.328 23.1767 22.0928 23.7417 21.6223 24.2117C21.1519 24.6817 20.5864 24.9167 19.9258 24.9167ZM6.89372 5.71663L9.77639 11.7167H18.1842L21.4872 5.71663H6.89372ZM5.75267 3.31663H23.469C23.9295 3.31663 24.2798 3.52163 24.52 3.93163C24.7602 4.34163 24.7702 4.75663 24.55 5.17663L20.2861 12.8567C20.0659 13.2567 19.7706 13.5667 19.4003 13.7867C19.0299 14.0067 18.6246 14.1167 18.1842 14.1167H9.23589L7.91467 16.5167H22.328V18.9167H7.91467C7.01383 18.9167 6.33321 18.5217 5.87278 17.7317C5.41235 16.9417 5.39234 16.1567 5.81272 15.3767L7.43422 12.4367L3.11023 3.31663H0.708008V0.916626H4.61161L5.75267 3.31663Z" fill="white"/>
</g>
<defs>
<clipPath id="clip0_4021_4">
<rect width="25" height="25" fill="white" transform="translate(0.5 0.5)"/>
</clipPath>
</defs>
</svg>
