<svg width="25" height="25" viewBox="0 0 25 25" fill="none" xmlns="http://www.w3.org/2000/svg">
<path d="M7.41467 24.4167C6.75406 24.4167 6.18853 24.1817 5.7181 23.7117C5.24766 23.2417 5.01245 22.6767 5.01245 22.0167C5.01245 21.3567 5.24766 20.7917 5.7181 20.3217C6.18853 19.8517 6.75406 19.6167 7.41467 19.6167C8.07528 19.6167 8.6408 19.8517 9.11123 20.3217C9.58167 20.7917 9.81689 21.3567 9.81689 22.0167C9.81689 22.6767 9.58167 23.2417 9.11123 23.7117C8.6408 24.1817 8.07528 24.4167 7.41467 24.4167ZM19.4258 24.4167C18.7652 24.4167 18.1996 24.1817 17.7292 23.7117C17.2588 23.2417 17.0235 22.6767 17.0235 22.0167C17.0235 21.3567 17.2588 20.7917 17.7292 20.3217C18.1996 19.8517 18.7652 19.6167 19.4258 19.6167C20.0864 19.6167 20.6519 19.8517 21.1223 20.3217C21.5928 20.7917 21.828 21.3567 21.828 22.0167C21.828 22.6767 21.5928 23.2417 21.1223 23.7117C20.6519 24.1817 20.0864 24.4167 19.4258 24.4167ZM6.39372 5.21666L9.27639 11.2167H17.6842L20.9872 5.21666H6.39372ZM5.25267 2.81666H22.969C23.4295 2.81666 23.7798 3.02166 24.02 3.43166C24.2602 3.84166 24.2702 4.25666 24.05 4.67666L19.7861 12.3567C19.5659 12.7567 19.2706 13.0667 18.9003 13.2867C18.5299 13.5067 18.1246 13.6167 17.6842 13.6167H8.73589L7.41467 16.0167H21.828V18.4167H7.41467C6.51383 18.4167 5.83321 18.0217 5.37278 17.2317C4.91235 16.4417 4.89234 15.6567 5.31272 14.8767L6.93422 11.9367L2.61023 2.81666H0.208008V0.416656H4.11161L5.25267 2.81666Z" fill="#2B2B2B"/>
</svg>
